<svg width="30" height="30" viewBox="0 0 30 30" fill="none" xmlns="http://www.w3.org/2000/svg">
<path d="M17.8365 12.2513C17.6713 11.8693 17.2957 11.6225 16.8795 11.6225C16.878 11.6225 13.0309 11.6291 13.01 11.6291C12.641 11.6291 12.3137 11.9035 12.1634 12.2513L10.1549 16.8959C10.0444 17.1513 10.04 17.4345 10.1425 17.6933C10.245 17.952 10.4422 18.1554 10.6976 18.2659C10.8294 18.3228 10.9683 18.3516 11.1108 18.3516C11.5269 18.3516 11.9025 18.1049 12.0676 17.723L12.4332 16.8775V25.7397C12.4332 26.3724 12.948 26.8872 13.5808 26.8872C14.2136 26.8872 14.7284 26.3724 14.7284 25.7397V19.8311H15.215V25.7397C15.215 26.3724 15.7298 26.8872 16.3627 26.8872C16.9954 26.8872 17.5101 26.3724 17.5101 25.7397V16.7469L17.9322 17.723C18.0974 18.1048 18.4729 18.3516 18.8889 18.3516C19.0314 18.3516 19.1704 18.3227 19.3021 18.2658C19.5576 18.1553 19.7547 17.952 19.8573 17.6932C19.9597 17.4345 19.9554 17.1513 19.8449 16.8958L17.8365 12.2513Z" fill="black"/>
<path d="M14.8694 11.2405C16.3172 11.2405 17.4951 10.0624 17.4951 8.61434C17.4951 7.16611 16.3171 5.98799 14.8694 5.98799C13.4211 5.98799 12.243 7.16619 12.243 8.61434C12.2429 10.0624 13.4211 11.2405 14.8694 11.2405Z" fill="black"/>
<path d="M25.7654 5.92119L21.0445 1.23396C20.3241 0.518941 19.0647 0 18.0499 0H5.46826C4.10045 0 2.98756 1.11289 2.98756 2.4807V27.5192C2.98756 28.8871 4.10045 30 5.46826 30H24.5315C25.8994 30 27.0123 28.8871 27.0123 27.5192V8.91587C27.0123 7.8976 26.4878 6.63802 25.7654 5.92119ZM5.46766 27.5192L5.46826 2.4801H18.0499C18.0917 2.4801 18.1376 2.48408 18.1863 2.49099V6.98162C18.1863 8.34951 19.2992 9.46239 20.667 9.46239H24.5322L24.5318 27.5199L5.46766 27.5192Z" fill="black"/>
</svg>
