<svg width="30" height="30" viewBox="0 0 30 30" fill="none" xmlns="http://www.w3.org/2000/svg">
<path d="M25.8598 17.7825V6.78767V6.78699V0.678733C25.8598 0.303937 25.5558 0 25.181 0H7.53398C5.66272 0 4.14032 1.5224 4.14032 3.39367V26.6063C4.14032 28.4776 5.66272 30 7.53398 30H25.181C25.5558 30 25.8598 29.6961 25.8598 29.3213C25.8598 28.9465 25.5558 28.6425 25.181 28.6425H24.7984V24.5701H25.181C25.5558 24.5701 25.8598 24.2662 25.8598 23.8914V17.7831V17.7825ZM24.5023 23.2127H20.7111L24.5023 19.4215V23.2127ZM24.5023 5.14867L20.7111 1.35747H24.5023V5.14867ZM5.49779 3.39367C5.49779 2.27091 6.41122 1.35747 7.53398 1.35747V17.5038C7.53398 17.8786 7.83792 18.1825 8.21272 18.1825C8.58751 18.1825 8.89145 17.8786 8.89145 17.5038V1.35747H18.7912L24.5023 7.06853V17.5017L18.7912 23.2127H8.89145V19.819C8.89145 19.4442 8.58751 19.1403 8.21272 19.1403C7.83792 19.1403 7.53398 19.4442 7.53398 19.819V23.2127C6.77068 23.2127 6.06534 23.466 5.49779 23.893V3.39367ZM23.4409 28.6425H7.53398C6.41122 28.6425 5.49779 27.7291 5.49779 26.6063C5.49779 25.4836 6.41122 24.5701 7.53398 24.5701H23.4409V28.6425V28.6425Z" fill="black"/>
</svg>
