<svg width="30" height="30" viewBox="0 0 30 30" fill="none" xmlns="http://www.w3.org/2000/svg">
<g clip-path="url(#clip0_1_11)">
<path d="M29.0019 6.87258C28.403 6.2452 27.576 5.87448 26.635 5.87448H21.9011V5.81744C21.9011 5.10452 21.616 4.42011 21.1312 3.96383C20.6464 3.47904 19.9905 3.19387 19.2776 3.19387H10.7224C9.98099 3.19387 9.3251 3.47904 8.8403 3.96383C8.35551 4.44862 8.07034 5.10452 8.07034 5.81744V5.87448H3.36502C2.42395 5.87448 1.59696 6.2452 0.998099 6.87258C0.39924 7.47144 0 8.32695 0 9.2395V23.441C0 24.3821 0.370722 25.2091 0.998099 25.8079C1.59696 26.4068 2.45247 26.806 3.36502 26.806H26.635C27.576 26.806 28.403 26.4353 29.0019 25.8079C29.6008 25.2091 30 24.3536 30 23.441V9.2395C30 8.29843 29.6293 7.47144 29.0019 6.87258ZM28.5171 23.441H28.4886C28.4886 23.9543 28.289 24.4106 27.9468 24.7528C27.6046 25.095 27.1483 25.2946 26.635 25.2946H3.36502C2.85171 25.2946 2.39544 25.095 2.05323 24.7528C1.71103 24.4106 1.51141 23.9543 1.51141 23.441V9.2395C1.51141 8.72619 1.71103 8.26992 2.05323 7.92771C2.39544 7.5855 2.85171 7.38589 3.36502 7.38589H8.86882C9.29658 7.38589 9.63878 7.04368 9.63878 6.61592V5.78893C9.63878 5.47524 9.75285 5.19007 9.95247 4.99045C10.1521 4.79083 10.4373 4.67676 10.751 4.67676H19.2776C19.5913 4.67676 19.8764 4.79083 20.076 4.99045C20.2757 5.19007 20.3897 5.47524 20.3897 5.78893V6.61592C20.3897 7.04368 20.7319 7.38589 21.1597 7.38589H26.6635C27.1768 7.38589 27.6331 7.5855 27.9753 7.92771C28.3175 8.26992 28.5171 8.72619 28.5171 9.2395V23.441Z" fill="black"/>
<path d="M15 9.32505C13.0608 9.32505 11.2928 10.1235 10.038 11.3783C8.75475 12.6616 7.98479 14.4011 7.98479 16.3403C7.98479 18.2794 8.78327 20.0475 10.038 21.3022C11.3213 22.5855 13.0608 23.3555 15 23.3555C16.9392 23.3555 18.7072 22.557 19.962 21.3022C21.2453 20.019 22.0152 18.2794 22.0152 16.3403C22.0152 14.4011 21.2167 12.633 19.962 11.3783C18.7072 10.1235 16.9392 9.32505 15 9.32505ZM18.8783 20.2471C17.8802 21.2167 16.5114 21.8441 15 21.8441C13.4886 21.8441 12.1198 21.2167 11.1217 20.2471C10.1236 19.249 9.52471 17.8802 9.52471 16.3688C9.52471 14.8574 10.1521 13.4886 11.1217 12.4905C12.1198 11.4924 13.4886 10.8935 15 10.8935C16.5114 10.8935 17.8802 11.5209 18.8783 12.4905C19.8764 13.4886 20.4753 14.8574 20.4753 16.3688C20.5038 17.8802 19.8764 19.249 18.8783 20.2471Z" fill="black"/>
<path d="M25.1521 12.0912C25.9238 12.0912 26.5494 11.4656 26.5494 10.6939C26.5494 9.92216 25.9238 9.29655 25.1521 9.29655C24.3804 9.29655 23.7548 9.92216 23.7548 10.6939C23.7548 11.4656 24.3804 12.0912 25.1521 12.0912Z" fill="black"/>
</g>
<defs>
<clipPath id="clip0_1_11">
<rect width="30" height="30" fill="white"/>
</clipPath>
</defs>
</svg>
