<svg width="30" height="30" viewBox="0 0 30 30" fill="none" xmlns="http://www.w3.org/2000/svg">
<path d="M24.7764 0H24.7743C23.9855 0 23.3066 0.588789 23.195 1.36963L20.8716 17.6341C20.7608 18.4091 21.2501 19.1368 22.0096 19.3267L22.7885 19.5214L22.3697 27.8977C22.342 28.4508 22.537 28.9764 22.9187 29.3776C23.3004 29.7789 23.8156 29.9999 24.3694 29.9999C25.4734 29.9999 26.3715 29.1018 26.3715 27.9978V1.59524C26.3715 0.715592 25.6559 0 24.7764 0ZM25.3996 27.9977C25.3996 28.5658 24.9374 29.0279 24.3694 29.0279C24.0844 29.0279 23.8193 28.9142 23.6229 28.7078C23.4264 28.5014 23.3261 28.2309 23.3404 27.9463L23.7791 19.1711C23.7907 18.9393 23.6367 18.7316 23.4116 18.6754L22.2453 18.3838C21.9705 18.3151 21.7936 18.0519 21.8336 17.7716L24.1572 1.50706C24.2007 1.20201 24.4661 0.97192 24.7742 0.97192H24.7763C25.12 0.97192 25.3996 1.25151 25.3996 1.59524V27.9977Z" fill="black"/>
<path d="M18.5956 0.461662C18.5821 0.193606 18.3536 -0.012311 18.086 0.000583152C17.8179 0.0139956 17.6115 0.242138 17.6249 0.510193L18.0399 8.81201H16.5227V0.48596C16.5227 0.217581 16.3051 0 16.0368 0C15.7684 0 15.5508 0.217581 15.5508 0.48596V8.81208H14.0336L14.4486 0.510258C14.462 0.242202 14.2556 0.0140604 13.9875 0.000647947C13.7195 -0.0129589 13.4913 0.193671 13.4779 0.461727L12.9889 10.241C12.9623 10.7736 13.2214 11.2882 13.6651 11.584L14.2523 11.9754C14.4114 12.0815 14.5029 12.2589 14.4973 12.45L14.0391 27.9461C14.024 28.4902 14.2246 29.0047 14.6041 29.3949C14.9836 29.7851 15.4924 30 16.0367 30C16.581 30 17.0898 29.7851 17.4693 29.3949C17.8487 29.0047 18.0495 28.4902 18.0343 27.9452L17.5761 12.45C17.5705 12.2589 17.6621 12.0815 17.8211 11.9754L18.4083 11.584C18.852 11.2882 19.1111 10.7736 19.0844 10.241L18.5956 0.461662ZM17.8693 10.7752L17.2821 11.1666C16.8423 11.4598 16.5891 11.9503 16.6047 12.4786L17.0629 27.973C17.0707 28.2525 16.9676 28.5168 16.7727 28.7172C16.5777 28.9176 16.3164 29.028 16.0368 29.028C15.7572 29.028 15.4959 28.9176 15.3009 28.7172C15.106 28.5168 15.003 28.2525 15.0107 27.9739L15.4689 12.4786C15.4845 11.9503 15.2313 11.4598 14.7915 11.1666L14.2044 10.7752C14.0439 10.6682 13.9502 10.4821 13.9598 10.2895L13.9851 9.78393H18.0886L18.1139 10.2895C18.1235 10.4821 18.0298 10.6682 17.8693 10.7752Z" fill="black"/>
<path d="M7.74305 0C6.73057 0 5.32893 0.508314 4.40146 2.93002C3.831 4.41939 3.62859 6.17435 3.62859 7.22461C3.62859 8.67056 4.36653 9.98402 5.60256 10.7382C5.94636 10.948 6.14606 11.3025 6.13673 11.6864L5.74012 27.9475C5.72683 28.4918 5.92893 29.006 6.30921 29.3957C6.68942 29.7853 7.19865 29.9999 7.74305 29.9999C8.28746 29.9999 8.79674 29.7853 9.17696 29.3957C9.55724 29.0061 9.75933 28.4918 9.74605 27.9475L9.34938 11.6865C9.34005 11.3025 9.53974 10.948 9.88355 10.7382C11.1196 9.98402 11.8575 8.6705 11.8575 7.22461C11.8575 6.17435 11.6551 4.41945 11.0846 2.93002C10.1572 0.508314 8.7556 0 7.74305 0ZM9.37724 9.90847C8.74309 10.2954 8.36009 10.9857 8.37772 11.7101L8.77432 27.9711C8.78119 28.2514 8.67713 28.5162 8.48132 28.7168C8.28551 28.9175 8.02329 29.0279 7.74299 29.0279C7.46268 29.0279 7.20046 28.9175 7.00465 28.7169C6.80884 28.5163 6.70478 28.2514 6.71165 27.9711L7.10826 11.7101C7.12595 10.9858 6.74294 10.2954 6.10873 9.90847C5.16429 9.33225 4.60044 8.3289 4.60044 7.22461C4.60044 5.18455 5.36858 0.97192 7.74299 0.97192C10.1174 0.97192 10.8855 5.18455 10.8855 7.22461C10.8856 8.3289 10.3218 9.33225 9.37724 9.90847Z" fill="black"/>
</svg>
